<svg xmlns="http://www.w3.org/2000/svg" viewBox="0 0 48.1 48.1">
    <style>.a{stop-opacity:0.7;}.b{stop-opacity:0.3;}.c{stop-opacity:0;}</style>
    <defs>
        <linearGradient id="g1" x1="1" y2="1">
            <stop offset="0.1"/>
            <stop offset="0.9" class="a"/>
        </linearGradient>
        <linearGradient id="g2" x2="1" y2="1">
            <stop offset="0.1" class="a"/>
            <stop offset="0.9" class="b"/>
        </linearGradient>
        <linearGradient id="g3" y1="1" x2="1">
            <stop offset="0.1" class="b"/>
            <stop offset="0.9" class="c"/>
        </linearGradient>
        <linearGradient id="g4" x1="1" y1="1">
            <stop offset="0.1" class="c"/>
            <stop offset="0.9" class="c"/>
        </linearGradient>
    </defs>
    <path d="M 7 41.3 H 4.6 C 3.7 41.3 2.9 40.5 2.9 39.5 V 14.4 C 2.9 13.4 3.7 12.7 4.6 12.7 H 15.7 C 16.4 12.7 17.1 12 17.1 11.2 S 16.4 9.8 15.7 9.8 H 4.6 C 2.1 9.8 0 11.9 0 14.4 V 39.5 C 0 42.1 2.1 44.2 4.6 44.2 H 7C7.8 44.2 8.4 43.5 8.4 42.7 8.4 41.9 7.8 41.3 7 41.3 Z"/>
    <path d="M 43.4 9.8 H 41.1 C 40.3 9.8 39.6 10.4 39.6 11.2 S 40.3 12.7 41.1 12.7 H 43.4 C 44.4 12.7 45.2 13.4 45.2 14.4 V 39.5 C 45.2 40.5 44.4 41.3 43.4 41.3 H 33.1 C 32.3 41.3 31.7 41.9 31.7 42.7 31.7 43.5 32.3 44.2 33.1 44.2 H 43.4 C 46 44.2 48.1 42.1 48.1 39.5 V 14.4 C 48.1 11.9 46 9.8 43.4 9.8Z"/>
    <path d="M 6.2 8.8 C 7 8.8 7.6 8.2 7.6 7.4 V 7.1 C 7.6 6.9 7.8 6.8 7.9 6.8 H 10.2 C 10.4 6.8 10.5 6.9 10.5 7.1 V 7.4 C 10.5 8.2 11.2 8.8 12 8.8 S 13.4 8.2 13.4 7.4 V 7.1 C 13.4 5.3 12 3.9 10.2 3.9 H 7.9 C 6.2 3.9 4.8 5.3 4.8 7.1 V 7.4 C 4.8 8.2 5.4 8.8 6.2 8.8 Z"/>
    <path d="M 40 27 C 40 19.4 33.8 13.2 26.2 13.2 S 12.5 19.4 12.5 27 C 12.5 34.6 18.6 40.8 26.2 40.8 33.8 40.8 40 34.6 40 27 Z M 26.2 37.9 C 20.2 37.9 15.3 33 15.3 27 15.3 21 20.2 16.1 26.2 16.1 32.3 16.1 37.2 21 37.2 27 S 32.3 37.9 26.2 37.9 Z"/>
    <g>
        <path d="M 26.2 17.9 C 21.2 17.9 17.1 22 17.1 27 L 20 27 C 20 23.6 22.8 20.8 26.2 20.8 A 1.5 1.5 0 0 0 26.2 17.9 Z" fill="url(#g1)"/>
        <path d="M 17.1 27 C 17.1 32 21.2 36.1 26.2 36.1 L 26.2 33.2 C 22.8 33.2 20 30.4 20 27 Z" fill="url(#g2)"/>
        <path d="M 26.2 36.1 C 31.2 36.1 35.3 32 35.3 27 L 32.4 27 C 32.5 30.4 29.7 33.2 26.2 33.2 Z" fill="url(#g3)"/>
        <path d="M 35.3 27 C 35.4 22 31.3 17.9 26.2 17.9 L 26.2 20.8 C 29.6 20.8 32.4 23.6 32.4 27 Z" fill="url(#g4)"/>
        <animateTransform values="0,26.2,27;360,26.2,27" attributeName="transform" type="rotate" repeatCount="indefinite" dur="1s"/>
    </g>
</svg>
