<svg xmlns="http://www.w3.org/2000/svg" viewBox="0 0 48.1 48.1">
    <path d="M 7,41.3 H 4.6 C 3.7,41.3 2.9,40.5 2.9,39.5 V 14.4 C 2.9,13.4 3.7,12.7 4.6,12.7 H 15.7 C 16.4,12.7 17.1,12 17.1,11.2 S 16.4,9.8 15.7,9.8 H 4.6 C 2.1,9.8 0,11.9 0,14.4 V 39.5 C 0,42.1 2.1,44.2 4.6,44.2 H 7 C 7.8,44.2 8.4,43.5 8.4,42.7 8.4,41.9 7.8,41.3 7,41.3 Z"/>
    <path d="M 43.4,9.8 H 41.1 C 40.3,9.8 39.6,10.4 39.6,11.2 S 40.3,12.7 41.1,12.7 H 43.4 C 44.4,12.7 45.2,13.4 45.2,14.4 V 39.5 C 45.2,40.5 44.4,41.3 43.4,41.3 H 33.1 C 32.3,41.3 31.7,41.9 31.7,42.7 31.7,43.5 32.3,44.2 33.1,44.2 H 43.4 C 46,44.2 48.1,42.1 48.1,39.5 V 14.4 C 48.1,11.9 46,9.8 43.4,9.8 Z"/>
    <path d="M 6.2,8.8 C 7,8.8 7.6,8.2 7.6,7.4 V 7.1 C 7.6,6.9 7.8,6.8 7.9,6.8 H 10.2 C 10.4,6.8 10.5,6.9 10.5,7.1 V 7.4 C 10.5,8.2 11.2,8.8 12,8.8 S 13.4,8.2 13.4,7.4 V 7.1 C 13.4,5.3 12,3.9 10.2,3.9 H 7.9 C 6.2,3.9 4.8,5.3 4.8,7.1 V 7.4 C 4.8,8.2 5.4,8.8 6.2,8.8 Z"/>
    <path d="M 40,27 C 40,19.4 33.8,13.2 26.2,13.2 S 12.5,19.4 12.5,27 C 12.5,34.6 18.6,40.8 26.2,40.8 33.8,40.8 40,34.6 40,27Z M 26.2,37.9 C 20.2,37.9 15.3,33 15.3,27 15.3,21 20.2,16.1 26.2,16.1 32.3,16.1 37.2,21 37.2,27 S 32.3,37.9 26.2,37.9 Z"/>
    <path d="M 26.2,17.9 C 21.3,17.9 17.1,22 17.1,27 17.1,32 21.2,36.1 26.2,36.1 31.3,36.1 35.4,32 35.4,27 35.4,22 31.2,17.8 26.2,17.9 Z M 26.2,20.9 C 27.3,20.9 28.4,21.3 29.3,21.8 L 21.1,30 C 20.6,29.1 20.2,28.1 20.2,27 20.2,25.4 20.8,23.8 22,22.7 23.1,21.6 24.6,20.9 26.2,20.9 Z M 31.4,24 C 31.9,24.9 32.3,25.9 32.3,27 32.3,28.6 31.7,30.1 30.5,31.3 29.4,32.4 27.9,33 26.2,33 25.2,33 24.1,32.7 23.2,32.1 Z"/>
</svg>
